<?xml version="1.0" encoding="utf-8"?>
<!-- Generator: Adobe Illustrator 25.0.1, SVG Export Plug-In . SVG Version: 6.00 Build 0)  -->
<svg version="1.1" xmlns="http://www.w3.org/2000/svg" xmlns:xlink="http://www.w3.org/1999/xlink" x="0px" y="0px"
	 viewBox="0 0 59.2 22.5" style="enable-background:new 0 0 59.2 22.5;" xml:space="preserve">
<style type="text/css">
	.st0{fill:#D8E5DC;}
	.st1{fill:#D1D3D4;}
</style>
<g id="Layer_2">
</g>
<g id="Layer_1">
	<rect x="-13.6" y="-1.8" width="84.3" height="29.3"/>
	<polygon class="st0" points="16.1,0.7 15.8,21.4 16.5,21.4 	"/>
	<ellipse class="st0" cx="16.1" cy="20" rx="1" ry="0.9"/>
	<polygon class="st0" points="10.8,13.2 16.9,21.1 17.3,20.8 	"/>
	<g>
		<path class="st0" d="M3.2,19.6c-0.7-0.4-1.2-0.9-1.6-1.6c-0.4-0.7-0.6-1.4-0.6-2.3c0-0.9,0.2-1.6,0.6-2.3c0.4-0.7,0.9-1.2,1.6-1.6
			c0.7-0.4,1.4-0.6,2.2-0.6c0.8,0,1.5,0.2,2.2,0.6c0.7,0.4,1.2,0.9,1.5,1.6c0.4,0.7,0.6,1.4,0.6,2.3c0,0.9-0.2,1.6-0.6,2.3
			c-0.4,0.7-0.9,1.2-1.5,1.6C7,20,6.2,20.2,5.4,20.2C4.6,20.2,3.9,20,3.2,19.6z M7.2,19c0.5-0.3,0.9-0.7,1.2-1.3
			c0.3-0.6,0.4-1.2,0.4-1.9c0-0.7-0.1-1.4-0.4-1.9s-0.7-1-1.2-1.3c-0.5-0.3-1.1-0.4-1.7-0.4s-1.2,0.1-1.7,0.4
			c-0.5,0.3-0.9,0.7-1.2,1.3S2,15,2,15.8c0,0.7,0.1,1.4,0.4,1.9c0.3,0.6,0.7,1,1.2,1.3c0.5,0.3,1.1,0.4,1.7,0.4S6.7,19.3,7.2,19z"/>
		<path class="st0" d="M20.4,12.1v3.3h3.3v0.7h-3.3v3.3h3.7v0.7h-4.5v-8.7h4.5v0.7H20.4z"/>
		<path class="st0" d="M30.4,20.1l-2.2-3.6h-1.6v3.6h-0.9v-8.7h2.6c1,0,1.7,0.2,2.2,0.7c0.5,0.5,0.8,1.1,0.8,1.8
			c0,0.6-0.2,1.2-0.5,1.6c-0.4,0.4-0.9,0.7-1.6,0.9l2.2,3.7H30.4z M26.7,15.8h1.8c0.7,0,1.2-0.2,1.5-0.5s0.5-0.8,0.5-1.3
			c0-0.6-0.2-1-0.5-1.3c-0.3-0.3-0.9-0.5-1.6-0.5h-1.7V15.8z"/>
		<path class="st0" d="M38.2,11.4v0.7h-2.4v8h-0.9v-8h-2.4v-0.7H38.2z"/>
		<path class="st0" d="M40.5,11.4v8.7h-0.9v-8.7H40.5z"/>
		<path class="st0" d="M51,11.5v8.6h-0.9v-6.9L47,20.1h-0.6l-3.1-6.8v6.8h-0.9v-8.6h0.9l3.3,7.4l3.3-7.4H51z"/>
		<path class="st0" d="M53.8,12.1v3.3h3.3v0.7h-3.3v3.3h3.7v0.7h-4.5v-8.7h4.5v0.7H53.8z"/>
	</g>
</g>
</svg>
