<?xml version="1.0" encoding="utf-8"?>
<!-- Generator: Adobe Illustrator 25.0.1, SVG Export Plug-In . SVG Version: 6.00 Build 0)  -->
<svg version="1.1" xmlns="http://www.w3.org/2000/svg" xmlns:xlink="http://www.w3.org/1999/xlink" x="0px" y="0px"
	 viewBox="0 0 183.7 85.9" style="enable-background:new 0 0 183.7 85.9;" xml:space="preserve">
<style type="text/css">
	.st0{fill:#D8E5DC;}
	.st1{fill:#D1D3D4;}
</style>
<g id="Layer_2">
</g>
<g id="Layer_1">
	<rect width="183.7" height="85.9"/>
	<g>
		<g>
			<path class="st1" d="M20.9,56.1c-1.8-1.1-3.3-2.6-4.3-4.6c-1-2-1.5-4.2-1.5-6.7c0-2.5,0.5-4.7,1.5-6.7c1-2,2.5-3.5,4.3-4.6
				c1.8-1.1,3.9-1.6,6.2-1.6s4.4,0.5,6.2,1.6c1.8,1.1,3.3,2.6,4.3,4.6c1,2,1.5,4.2,1.5,6.7c0,2.5-0.5,4.7-1.5,6.7
				c-1,2-2.5,3.5-4.3,4.6c-1.8,1.1-3.9,1.6-6.2,1.6S22.8,57.2,20.9,56.1z M32.9,55.6c1.7-1,3.1-2.4,4.1-4.3c1-1.9,1.5-4,1.5-6.5
				c0-2.5-0.5-4.6-1.5-6.5S34.7,35,32.9,34c-1.7-1-3.6-1.5-5.8-1.5c-2.1,0-4,0.5-5.8,1.5c-1.7,1-3.1,2.4-4.1,4.3
				c-1,1.9-1.5,4-1.5,6.5c0,2.5,0.5,4.6,1.5,6.5c1,1.9,2.4,3.3,4.1,4.3c1.7,1,3.6,1.5,5.8,1.5C29.3,57.1,31.2,56.6,32.9,55.6z"/>
			<path class="st1" d="M67.5,32.8v11.7h10.6v0.6H67.5v11.7h11.7v0.6H66.8V32.1h12.4v0.6H67.5z"/>
			<path class="st1" d="M97.9,57.5l-6.8-11.1h-0.7h-5.7v11.1H84V32.1h6.3c2.8,0,4.9,0.6,6.2,1.9c1.4,1.3,2,3,2,5.2
				c0,2-0.6,3.7-1.7,4.9c-1.2,1.2-2.8,2-4.9,2.2l6.8,11.1H97.9z M90.4,45.7c2.5,0,4.3-0.6,5.6-1.8c1.2-1.2,1.9-2.7,1.9-4.7
				c0-4.3-2.5-6.4-7.5-6.4h-5.6v12.9H90.4z"/>
			<path class="st1" d="M116.4,32.1v0.6H109v24.7h-0.7V32.8h-7.4v-0.6H116.4z"/>
			<path class="st1" d="M120.9,32.1v25.3h-0.7V32.1H120.9z"/>
			<path class="st1" d="M149.6,32.8v24.6h-0.7V34.6l-10.2,22.9H138l-10.2-22.9v22.9H127V32.8h0.7l10.6,23.7l10.5-23.7H149.6z"/>
			<path class="st1" d="M156.5,32.8v11.7H167v0.6h-10.6v11.7h11.7v0.6h-12.4V32.1h12.4v0.6H156.5z"/>
		</g>
		<polygon class="st1" points="57.5,19.3 56.7,63.3 58.3,63.3 		"/>
		<ellipse class="st1" cx="57.5" cy="60.3" rx="2.1" ry="1.9"/>
		<polygon class="st1" points="46.3,45.9 59.2,62.7 60.1,62 		"/>
	</g>
</g>
</svg>
