<?xml version="1.0" encoding="utf-8"?>
<!-- Generator: Adobe Illustrator 25.0.1, SVG Export Plug-In . SVG Version: 6.00 Build 0)  -->
<svg version="1.1" xmlns="http://www.w3.org/2000/svg" xmlns:xlink="http://www.w3.org/1999/xlink" x="0px" y="0px"
	 viewBox="0 0 41.2 19.3" style="enable-background:new 0 0 41.2 19.3;" xml:space="preserve">
<style type="text/css">
	.st0{fill:#D8E5DC;}
	.st1{fill:#D1D3D4;}
</style>
<g id="Layer_2">
</g>
<g id="Layer_1">
	<rect width="41.2" height="19.3"/>
	<g>
		<g>
			<path class="st1" d="M4.7,12.6c-0.4-0.2-0.7-0.6-1-1c-0.2-0.4-0.3-0.9-0.3-1.5c0-0.6,0.1-1.1,0.3-1.5c0.2-0.4,0.6-0.8,1-1
				c0.4-0.2,0.9-0.4,1.4-0.4s1,0.1,1.4,0.4c0.4,0.2,0.7,0.6,1,1C8.7,9,8.8,9.5,8.8,10.1c0,0.6-0.1,1.1-0.3,1.5c-0.2,0.4-0.6,0.8-1,1
				c-0.4,0.2-0.9,0.4-1.4,0.4S5.1,12.8,4.7,12.6z M7.4,12.5c0.4-0.2,0.7-0.5,0.9-1c0.2-0.4,0.3-0.9,0.3-1.5c0-0.6-0.1-1-0.3-1.5
				c-0.2-0.4-0.5-0.7-0.9-1C7,7.4,6.6,7.3,6.1,7.3c-0.5,0-0.9,0.1-1.3,0.3c-0.4,0.2-0.7,0.5-0.9,1C3.7,9,3.6,9.5,3.6,10.1
				c0,0.6,0.1,1,0.3,1.5c0.2,0.4,0.5,0.7,0.9,1c0.4,0.2,0.8,0.3,1.3,0.3C6.6,12.8,7,12.7,7.4,12.5z"/>
			<path class="st1" d="M15.1,7.3V10h2.4v0.1h-2.4v2.6h2.6v0.1H15V7.2h2.8v0.1H15.1z"/>
			<path class="st1" d="M21.9,12.9l-1.5-2.5h-0.2H19v2.5h-0.2V7.2h1.4c0.6,0,1.1,0.1,1.4,0.4c0.3,0.3,0.5,0.7,0.5,1.2
				c0,0.5-0.1,0.8-0.4,1.1c-0.3,0.3-0.6,0.4-1.1,0.5l1.5,2.5H21.9z M20.3,10.3c0.6,0,1-0.1,1.2-0.4c0.3-0.3,0.4-0.6,0.4-1.1
				c0-1-0.6-1.4-1.7-1.4H19v2.9H20.3z"/>
			<path class="st1" d="M26.1,7.2v0.1h-1.7v5.5h-0.2V7.3h-1.7V7.2H26.1z"/>
			<path class="st1" d="M27.1,7.2v5.7H27V7.2H27.1z"/>
			<path class="st1" d="M33.5,7.4v5.5h-0.2V7.8l-2.3,5.1h-0.2l-2.3-5.1v5.1h-0.2V7.4h0.2l2.4,5.3l2.4-5.3H33.5z"/>
			<path class="st1" d="M35.1,7.3V10h2.4v0.1h-2.4v2.6h2.6v0.1h-2.8V7.2h2.8v0.1H35.1z"/>
		</g>
		<polygon class="st1" points="12.9,4.3 12.7,14.2 13.1,14.2 		"/>
		<ellipse class="st1" cx="12.9" cy="13.5" rx="0.5" ry="0.4"/>
		<polygon class="st1" points="10.4,10.3 13.3,14.1 13.5,13.9 		"/>
	</g>
</g>
</svg>
